<mxfile host="app.diagrams.net" modified="2022-03-16T09:18:21.915Z" agent="5.0 (Windows NT 10.0; Win64; x64) AppleWebKit/537.36 (KHTML, like Gecko) Chrome/99.0.4844.51 Safari/537.36" etag="3BlIC0Pn8dETM6wybP3x" version="17.1.3" type="github">
  <diagram id="ptAvUIJP6ou-V0eGQScL" name="Page-1">
    <mxGraphModel dx="1420" dy="1824" grid="1" gridSize="10" guides="1" tooltips="1" connect="1" arrows="1" fold="1" page="1" pageScale="1" pageWidth="850" pageHeight="1100" math="0" shadow="0">
      <root>
        <mxCell id="0" />
        <mxCell id="1" parent="0" />
        <mxCell id="FZFnF7o7BKfkB1xV1x0k-1" value="" style="rounded=0;whiteSpace=wrap;html=1;" vertex="1" parent="1">
          <mxGeometry x="290" y="280" width="180" height="70" as="geometry" />
        </mxCell>
        <mxCell id="FZFnF7o7BKfkB1xV1x0k-2" value="" style="rounded=0;whiteSpace=wrap;html=1;" vertex="1" parent="1">
          <mxGeometry x="80" y="270" width="120" height="60" as="geometry" />
        </mxCell>
      </root>
    </mxGraphModel>
  </diagram>
</mxfile>
